<?xml version="1.0" standalone="no"?>
<!DOCTYPE svg PUBLIC "-//W3C//DTD SVG 20010904//EN"
 "http://www.w3.org/TR/2001/REC-SVG-20010904/DTD/svg10.dtd">
<svg version="1.0" xmlns="http://www.w3.org/2000/svg"
 width="32.000000pt" height="32.000000pt" viewBox="0 0 32.000000 32.000000"
 preserveAspectRatio="xMidYMid meet">

<g transform="translate(0.000000,32.000000) scale(0.100000,-0.100000)"
fill="#000000" stroke="none">
<path d="M4 307 c-2 -7 -3 -78 -2 -157 l3 -145 155 0 155 0 0 155 0 155 -153
3 c-119 2 -154 0 -158 -11z m231 -105 c-4 -4 -14 3 -22 16 -10 14 -26 22 -44
22 -26 0 -29 -3 -29 -35 0 -37 25 -50 36 -20 13 32 34 16 34 -25 0 -29 -4 -40
-15 -40 -8 0 -15 7 -15 15 0 8 -9 15 -20 15 -16 0 -20 -7 -20 -30 0 -28 2 -30
39 -30 31 0 41 4 46 20 10 32 25 23 25 -15 l0 -35 -90 0 c-83 0 -112 9 -75 24
22 8 22 144 0 152 -35 14 -10 23 68 26 l82 3 3 -28 c2 -16 0 -32 -3 -35z"/>
</g>
</svg>
